<?xml version="1.0" encoding="utf-8"?>

<!DOCTYPE svg PUBLIC "-//W3C//DTD SVG 1.1//EN" "http://www.w3.org/Graphics/SVG/1.1/DTD/svg11.dtd">
<!-- Uploaded to: SVG Repo, www.svgrepo.com, Generator: SVG Repo Mixer Tools -->
<svg height="800px" width="800px" version="1.1" id="_x32_" xmlns="http://www.w3.org/2000/svg" xmlns:xlink="http://www.w3.org/1999/xlink" 
	 viewBox="0 0 512 512"  xml:space="preserve">
<style type="text/css">
	.st0{fill:#000000;}
</style>
<g>
	<path class="st0" d="M425.906,58.364c0.013,0,0.02,0,0.034,0c0.014,0,0.028-0.013,0.041-0.013L425.906,58.364z"/>
	<path class="st0" d="M426.015,58.344c-0.014,0-0.02,0.007-0.034,0.007l0.137-0.02L426.015,58.344z"/>
	<path class="st0" d="M466.853,77.712l-17.071-13.09l-0.013-0.014c-5.588-4.267-12.393-6.566-19.383-6.572
		c-1.409,0.006-2.9,0.095-4.446,0.328c-8.412,1.184-16.004,5.67-21.093,12.489L265.398,257.624l-0.219,0.328
		c-7.647,11.428-14.465,19.478-21.612,25.346c-7.168,5.862-14.774,9.87-25.34,13.064c-9.623,2.879-18.036,4.35-25.449,4.343
		c-6.142-0.007-11.613-0.951-17.038-3.009c-5.416-2.072-10.86-5.3-16.661-10.307l-2.496-2.168l-0.014-0.006
		c-5.464-4.733-12.324-7.127-19.109-7.12c-6.792-0.007-13.686,2.4-19.157,7.16l-92.442,80.39
		c-8.091,7.086-14.185,16.046-18.624,25.326C2.865,400.322,0.075,409.836,0,419.37c0.006,1.389,0.068,2.797,0.226,4.234
		c0.91,8.495,3.194,14.897,5.732,19.397c2.524,4.507,5.246,7.037,6.579,8.05l3.782,2.913h223.951
		c13.57-0.007,26.27-4.364,37.063-11.19c10.813-6.853,19.868-16.189,26.523-26.912l0.054-0.083l79.276-133.396l5.246,171.581h77.799
		l-1.252-15.156c-0.383-4.692-0.575-9.787-0.575-15.19c-0.013-20.607,2.756-45.715,7.004-71.5
		c6.354-38.711,15.97-79.064,23.986-109.622c4.008-15.286,7.613-28.131,10.218-37.138c1.3-4.507,2.346-8.05,3.071-10.457
		c0.356-1.204,0.636-2.128,0.821-2.742l0.28-0.91l0.254-0.814l0.15-0.835c1.218-6.798,1.812-13.624,1.812-20.381
		C512,133.735,495.606,99.756,466.853,77.712z M459.774,269.395c-5.807,24.342-11.62,51.466-16.011,78.182
		c-4.384,26.735-7.367,53.005-7.374,76.041c0,0.807,0.083,1.532,0.089,2.332h-20.873l-4.48-146.494h-0.027
		c-0.191-12.017-8.186-22.529-19.794-25.826c-2.496-0.718-5.02-1.053-7.482-1.053c-9.281-0.007-18.145,4.753-23.206,12.954
		l-0.054,0.082L280,401.178c-4.433,7.147-10.663,13.521-17.639,17.919c-7.011,4.425-14.609,6.86-22.092,6.853H29.088
		c-0.383-1.348-0.752-3.084-1.012-5.369l-0.062-1.211c-0.069-3.399,1.477-10.081,4.527-16.387
		c2.989-6.368,7.414-12.516,11.702-16.196l92.442-80.391l0.772-0.287l0.786,0.294l2.503,2.168
		c7.893,6.833,16.237,11.962,25.019,15.3c8.768,3.351,17.878,4.856,27.009,4.849c11.066-0.007,22.125-2.127,33.479-5.52
		c13.419-3.987,25.026-9.938,35.107-18.268c9.965-8.2,18.35-18.432,26.736-30.887L427.294,87.609
		c0.616-0.827,1.539-1.375,2.565-1.518l0.109-0.013l0.418-0.021c0.828-0.006,1.669,0.274,2.366,0.807l-0.013-0.014l17.071,13.091
		c21.763,16.681,34.176,42.418,34.176,69.277c0,4.917-0.444,9.883-1.292,14.834C480.82,190.201,470.327,225.144,459.774,269.395z"/>
	<path class="st0" d="M391.277,253.616c0.007,0,0.021,0.007,0.027,0.014c0.014,0,0.034,0,0.048,0.007L391.277,253.616z"/>
</g>
</svg>